<svg width="510" height="509" xmlns="http://www.w3.org/2000/svg" viewBox="0,0,510,509" style="width: 100%; height: auto;">
 <path d="m510 509h-510v-509h510zm-455-80h62l130.25 0.25c71.64 0.14 132.05-0.08 134.25-0.48 3.76-0.68 4.27-1.22 13.5-17.77l4-9 8-12 2-4 4-9 2.79-4.25c4.64-7.09 27.22-47.2 39.21-70.75l2.52-4.31c1.39-2.38 2.24-4.59 1.91-4.93-0.34-0.33-0.21-1.33 0.28-2.21 0.5-0.88 1.22-1.29 1.61-0.89 0.39 0.39 0.93-0.05 1.68-2.66l4-6 1.17-2.43c1.02-2.14 0.69-3.16-2.9-8.75-2.23-3.47-6.13-10.03-13.27-22.82v-1l-0.75-2.75c-0.41-1.51-1.31-3.09-3.25-4.25l-3-7-5-7-0.74-1.25c-0.41-0.69-0.75-1.63-0.75-2.09-0.01-0.46-0.57-1.7-2.51-4.66l-3.25-5.9c-1.79-3.25-3.86-6.08-4.61-6.29s-1.5-1.57-1.66-3.01c-0.36-3.29-1.88-6.09-3.06-5.64-0.5 0.19-1.13-0.94-1.41-2.5s-0.86-2.49-1.28-2.06c-0.42 0.42-1.21-0.44-2.73-4.6l-4.55-8.75c-2.5-4.81-4.98-9.54-6.45-12.25l-11.75-21.07c-29.36-52.64-27.87-50.93-55.25-50.93h-10-22l-32-1h-13-45l-3.25 0.48c-7.85 1.14-0.56-11.97-118.79 214.02-15.82 30.25-35.79 68.33-44.37 84.62s-15.89 31.25-16.24 33.25c-0.69 3.91 2.21 4.64 19.65 3.63zm198-319 53-1h1l7 1-1.75 2.47c-7.08 10-130.24 242.62-130.27 246.05-0.01 1.26 0.9 2.25 5.02 3.48l33 1 61-1h60l2.75-1.25c2.13-0.97 4.82-5.19 11.95-18.75 14.55-27.68 16.53-26-66.7-26h-14-9c-6.58 0-8.98-0.34-8.92-1.25 0.19-2.96 85.52-159.25 86.94-159.25 0.95 0 11.58 18.21 28.89 49.5 15.05 27.23 30.01 53.89 33.23 59.25 3.61 6 5.86 10.89 5.86 12.7 0 2.37-44.86 86.07-54.87 102.36-1.72 2.81-1.72 2.81-191.13 2.69l-15 1h-1l-3-2 8.83-16.75c30-56.9 54-101.73 86.42-161.38 38.1-70.11 39.24-72.6 34.6-74.87-3.5-1.72-45.3-1.57-47.8 0.17-1.11 0.77-26.1 47.06-55.53 102.87-29.43 55.8-62.42 118.34-73.3 138.96-10.88 20.63-20.56 39.19-23.22 45l-19 1-1.25-1.75c-1.06-1.49-0.43-3.21 4.25-11.62 5.76-10.32 14.88-27.51 24.47-46.13 3.12-6.05 7.2-13.7 9.07-17s4.12-7.78 5-9.96 2.94-5.94 4.57-8.36 4.32-7.16 5.97-10.54 4.53-8.84 6.4-12.14c1.88-3.3 5.29-9.6 7.6-14 2.3-4.4 6.04-11.46 8.3-15.68 2.27-4.23 14.2-26.73 26.51-50 32.58-61.59 56.16-104.87 58.27-106.98 1.64-1.64 3.65-1.84 35.84-1.84zm-15 32h16l2.25 0.45c2.16 0.43 2.01 0.88-3.9 11.25-5.6 9.84-58.55 109.44-82.03 154.3-12.2 23.32-26.73 50.78-35.52 67.16-7.71 14.35-8.31 17.47-0.8 20.84h13 74 103l18.81-0.25c12.37-0.16 19.74-0.68 21.53-1.5 2.19-0.99 9-12.5 34.3-58 36.78-66.14 34.64-59.71 24.5-73.57-3.37-4.62-6.14-9.21-6.14-10.21s-2.23-5.45-4.95-9.89c-2.72-4.45-8.63-15.05-13.14-23.58-16.78-31.78-22.38-41.99-33.5-61.12-12.43-21.38-12.67-22.2-8.78-29.88 4.45-8.8 4.78-8.46 23.56 24.5 37.38 65.63 68.81 122.59 68.81 124.73 0 3.19-72.26 134.14-75.13 136.15-2.05 1.44-7.49 1.62-93.87 1.62h-188l4.43-8.9c2.43-4.9 9.21-17.84 15.05-28.75 14.89-27.81 19.13-35.8 37.02-69.85 8.68-16.5 32.36-60.49 89.5-165.5zm92-32 12-1 2.25 0.25c4.18 0.46 4.46 2.36 1.26 8.51-1.64 3.16-21.21 39.74-43.5 81.3-53.96 100.65-66.77 125.82-65.31 128.39 1.01 1.79 2.13 1.94 25.3 1.55l47 1h4l21-1h5.5c3.8 0 5.5 0.4 5.5 1.28 0 1.71-9.01 18.15-11 18.72h-29-21l-78 1-1.75-0.96c-1.57-0.86-0.66-3.09 8.66-21.25 13.22-25.76 99.54-186.91 117.09-217.79z" fill="rgba(0,0,0,0)"></path>
 <path d="m48 417 2-3 2.59-3.75c1.43-2.06 2.55-4.31 2.41-6.25l3-5 3-6 3-5 22-43 2-3 8-16 2.25-2.75c1.24-1.51 2.36-3.54 2.75-6.25l10-18 8-16 3-5 7-13 3-6 6-11 3-6 6-11 2-4 9-17 6-12 4-7 21.66-41.71c11.92-22.94 22.7-42.74 23.96-44 2.84-2.84 103.92-3.72 106.46-0.93 1.31 1.44 3.9-3.55-94.08 179.64l-3 5-9 18-4 7-7 13-3 6-7 13-2.51 5.75c-1.39 3.19-2.06 5.86-0.49 6.25l74.75 0.25c70.05 0.23 74.86 0.14 78.25-3.25l12-23 4-7v-4l-110-2 8-16 0.75-1.45c23.88-46.32 85.44-159.68 86.57-159.4 0.79 0.19 6.45 9.69 23.68 41.85l3 5 19 35 3 5 18 32 3 5 3.11 5.54c2.96 5.26 3.04 5.65-0.11 10.46l-5 9-51 94-35.75 0.54c-19.66 0.3-68.49 0.75-181.25 1.46l-2.41-0.25c-1.95-0.2-2.24-0.58-0.59-3.75l3-6 7-13 8-15 2-4 9-17 1-2 9-17 2-4 6-11 3-6 4-7 3-6 3-5 17-33 3-5 25.75-48.25c14.16-26.54 25.75-49.04 25.75-50 0-2.04-39.89-2.76-41.5 0.25l-3 5-28 53-7 13-2 4-6 11-2 4-8 15-3 6-6 11-4 8-3 5-7 13-8 16-3 5-7 14-4.25 6.75c-2.34 3.71-4.36 7.54-4.75 10.25l-15 28-2.42 3.42c-1.33 1.87-2.72 3.11-3.08 2.75-0.37-0.37-0.86 1.02-1.5 6.83l-9 18-3 5-4 8-3.68 7c-3.67 7-3.67 7-17.32 7l-9-0.12c-6.94-0.09-9-0.43-9-2.88zm29-2c2.66-5.81 12.34-24.37 23.22-45 10.88-20.62 43.87-83.16 73.3-138.96 29.43-55.81 54.42-102.1 55.53-102.87 2.5-1.74 44.3-1.89 47.8-0.17 4.64 2.27 3.5 4.76-34.6 74.87-32.42 59.65-56.42 104.48-86.42 161.38l-8.83 16.75-0.75 1.75c-0.63 1.47-0.39 1.63 3.75 0.25h1l15-1c189.41 0.12 189.41 0.12 191.13-2.69 10.01-16.29 54.87-99.99 54.87-102.36 0-1.81-2.25-6.7-5.86-12.7-3.22-5.36-18.18-32.02-33.23-59.25-17.31-31.29-27.94-49.5-28.89-49.5-1.42 0-86.75 156.29-86.94 159.25-0.06 0.91 2.34 1.25 8.92 1.25h9 14c83.23 0 81.25-1.68 66.7 26-7.13 13.56-9.82 17.78-11.95 18.75l-2.75 1.25h-60l-61 1-33-1c-4.12-1.23-5.03-2.22-5.02-3.48 0.03-3.43 123.19-236.05 130.27-246.05l1.75-2.47-0.25-1.25c-0.18-0.88-1.21-1.03-6.75 0.25h-1l-53 1c-32.19 0-34.2 0.2-35.84 1.84-2.11 2.11-25.69 45.39-58.27 106.98-12.31 23.27-24.24 45.77-26.51 50-2.26 4.22-6 11.28-8.3 15.68-2.31 4.4-5.72 10.7-7.6 14-1.87 3.3-4.75 8.76-6.4 12.14s-4.34 8.12-5.97 10.54-3.69 6.18-4.57 8.36-3.13 6.66-5 9.96-5.95 10.95-9.07 17c-9.59 18.62-18.71 35.81-24.47 46.13-4.68 8.41-5.31 10.13-4.25 11.62l1.25 1.75 8.45 0.25c4.65 0.14 8.93-0.09 10.55-1.25z" fill="rgba(68,68,68,0.976471)"></path>
 <path d="m46 414 5-10 1-1 8-16 3-5 6-12 3-5 10-20 3-5 7-14 6-11 5-10 1-1 5-10 4-7 7-14 8-15 5-9 5-10 2-3 9-18 9-17 2-3 13-26 5-9 3-6 3-5 5-10 7-13 3-6 4-7 3.34-6.25c5.71-10.69 0.42-9.75 102.66-9.75h48 2.63c1.45 0 3.03 0.45 4.37 2l4 7 4 8 3 5 1 2 4 7 7 13 4 7 1 2 3 5 1 2 4 7 1 2 3 5 1 2 12 21 7 13 3 5 1 2 3 5 16 29 3 5 1 2 3 5 1 2 4 7 2 5-3 6-7 13-4 7-3 6-3 5-5.56 9.75c-3.06 5.36-6.66 11.89-10.44 19.25l-3 6-4 7-1 2-3 5-2 3-5 10-4 7-7 13-5 9-3 5-4 8-3 5-167.86 0.25c-92.33 0.14-168.44-0.1-169.15-0.54-1.02-0.62-0.94-1.58 2.01-8.71zm20 6c13.65 0 13.65 0 17.32-7l3.68-7 4-8 3-5 9-18 7-13 15-28 9-17 7-14 3-5 8-16 7-13 3-5 4-8 6-11 3-6 8-15 2-4 6-11 2-4 7-13 28-53 3-5c1.61-3.01 41.5-2.29 41.5-0.25 0 0.96-11.59 23.46-25.75 50l-25.75 48.25-3 5-17 33-3 5-3 6-4 7-3 6-6 11-2 4-9 17-1 2-9 17-2 4-8 15-7 13-3 6c-1.65 3.17-1.36 3.55 0.59 3.75l2.41 0.25 108.2 0.25c85.9 0.2 108.26-0.01 108.8-2.25l51-94 5-9c3.15-4.81 3.07-5.2 0.11-10.46l-3.11-5.54-3-5-18-32-3-5-19-35-3-5c-17.23-32.16-22.89-41.66-23.68-41.85-1.13-0.28-62.69 113.08-86.57 159.4l-0.75 1.45-8 16-0.25 0.75c-0.14 0.41 24.61 0.86 110.25 1.25v4l-4 7-12 23-2.75 0.71c-1.51 0.38-35.94 1.06-150.25 2.29-1.57-0.39-0.9-3.06 0.49-6.25l2.51-5.75 7-13 3-6 7-13 4-7 9-18 3-5c97.98-183.19 95.39-178.2 94.08-179.64-2.54-2.79-103.62-1.91-106.46 0.93-1.26 1.26-12.04 21.06-23.96 44l-21.66 41.71-4 7-6 12-9 17-2 4-6 11-3 6-6 11-3 6-7 13-3 5-8 16-15 27-8 16-2 3-22 43-3 5-3 6-3 5-5 10-2 3-0.42 0.26c-3.48 2.15-0.36 3.22 18.42 2.74zm158 0 77.25-0.25c77.25-0.25 77.25-0.25 82.75-10.75l3-5 15-28 4-7 3-5 3-6 3-5 4-8 4-7 16-29 3-5 9-17 5-9-2.25-5.96c-1.24-3.27-3.04-7.1-5.75-11.04l-3-5-3-6-3-5-14-25-4-7-1-2-3-5-2-4-4-7-18-32-3-5-1-2-4-7-1-2-4-7-14-26-3-5-0.53-1.25c-0.8-1.87-1.63-0.6-8.9 13.6-7.74 15.13-7.71 14.86 1.43 30.65l3 5 7 13 4 7 5 10 4 7 3 5 16 29 3 5 20 36 3 5 1 4-5 9-8 15-4 7-3 5-18 33-4 7-4 8-4 7-13 22h-199-15-13l2-7 3-6 7-13 7-14 4-7 4-8 5-9 6-12 4-7 4-8 4-7 4-8 3-5 10-20 3-5 14-26 4-8 3-5 19-36 3-5 20-37 0.72-1c0.45-0.63-1.04-1-8.72-1h-10l-15 1-43 81-3 5-5 10-3 5-4 8-5 9-2 4-8 15-2 4-6 11-5 10-7 13-3 6-6 11-4 8-5 9-3 5-6 12-3 5-7 14-7 13-3 5-4.7 8.62c-7.72 14.16-14.11 13 134.7 11.38zm116-68 13-25 0.25-1.25c0.19-0.97-5.94-1.31-55.25-1.75l-25.25 0.6c-34.84 0.83-33.02 3.03-7.75-43.6l6-12 3-5 27-51 3-5 0.45-1.25c0.25-0.69 12.28-23.44 26.73-50.57 21.7-40.72 26.11-49.66 25.3-51.3-1.51-3.06-27.08-2.98-31.48 2.12l-4 7-51 96-3 5-22 41-3 6-10 19-9 18-3 5-3 6-4 7-8 15-4 8-3.75 6.75c-3.24 5.82-3.51 6.78-0.25 7.25l71.2 0.25c56.31 0.2 71.27-0.01 71.8-2.25z" fill="rgba(226,226,226,1)"></path>
 <path d="m94 400 3-5 7-13 7-14 3-5 6-12 3-5 5-9 4-8 6-11 3-6 7-13 5-10 6-11 2-4 8-15 2-4 5-9 4-8 3-5 5-10 3-5 43-81 15-1h10l8 2-20 37-3 5-19 36-3 5-4 8-14 26-3 5-10 20-3 5-4 8-4 7-4 8-4 7-6 12-5 9-4 8-4 7-7 14-7 13-3 6-2 7h13 15 199l13-22 4-7 4-8 4-7 18-33 3-5 4-7 8-15 5-9-1-4-3-5-20-36-3-5-16-29-3-5-4-7-5-10-4-7-7-13-3-5c-9.14-15.79-9.17-15.52-1.43-30.65 7.27-14.2 8.1-15.47 8.9-13.6l0.53 1.25 3 5 14 26 4 7 1 2 4 7 1 2 3 5 18 32 4 7 2 4 3 5 1 2 4 7 14 25 3 5 3 6 3 5c2.71 3.94 4.51 7.77 5.75 11.04l2.25 5.96-5 9-9 17-3 5-16 29-4 7-4 8-3 5-3 6-3 5-4 7-15 28-3 5c-5.5 10.5-5.5 10.5-82.75 10.75l-77.25 0.25-67.25-1.25c-77.31-1.44-69.92-0.08-62.75-18.75zm186 15c86.38 0 91.82-0.18 93.87-1.62 2.87-2.01 75.13-132.96 75.13-136.15 0-2.14-31.43-59.1-68.81-124.73-18.78-32.96-19.11-33.3-23.56-24.5-3.89 7.68-3.65 8.5 8.78 29.88 11.12 19.13 16.72 29.34 33.5 61.12 4.51 8.53 10.42 19.13 13.14 23.58 2.72 4.44 4.95 8.89 4.95 9.89s2.77 5.59 6.14 10.21c10.14 13.86 12.28 7.43-24.5 73.57-25.3 45.5-32.11 57.01-34.3 58-1.79 0.82-9.16 1.34-21.53 1.5l-18.81 0.25h-103-74-13c-7.51-3.37-6.91-6.49 0.8-20.84 8.79-16.38 23.32-43.84 35.52-67.16 23.48-44.86 76.43-144.46 82.03-154.3 5.91-10.37 6.06-10.82 3.9-11.25l-2.25-0.45h-16c-57.14 105.01-80.82 149-89.5 165.5-17.89 34.05-22.13 42.04-37.02 69.85-5.84 10.91-12.62 23.85-15.05 28.75l-4.43 8.9z" fill="rgba(68,68,68,0.976471)"></path>
 <path d="m218 93h45 13l32 1h22 10c27.38 0 25.89-1.71 55.25 50.93l11.75 21.07-0.25 1.51c-0.14 0.83 2.34 5.55 11.25 19.49 1.52 4.16 2.31 5.02 2.73 4.6 0.42-0.43 1 0.5 1.28 2.06s0.91 2.69 1.41 2.5c1.18-0.45 2.7 2.35 3.06 5.64 0.16 1.44 0.91 2.8 1.66 3.01s2.82 3.04 4.61 6.29l3.25 5.9-1.75-1.24c-2.77-1.95 0.06 4.15 5.75 9.24l5 7-1.75-1.35c-3.08-2.36-2.6-0.95 3.07 9.05 3.05 5.39 5.58 9.24 5.68 7.3 7.14 12.79 11.04 19.35 13.27 22.82 3.59 5.59 3.92 6.61 2.9 8.75l-1.17 2.43-0.29-1.21c-0.15-0.67-1.34 0.5-2.64 2.6s-2.07 3.99-1.07 4.61c-0.75 2.61-1.29 3.05-1.68 2.66-0.39-0.4-1.11 0.01-1.61 0.89-0.49 0.88-0.62 1.88-0.28 2.21 0.33 0.34-0.52 2.55-1.91 4.93l-2.52 4.31-0.75-0.6c-0.75-0.61-41.25 72.62-41.25 75.6l-2.25 3.46c-1.24 1.9-2.14 3.93-1.75 5.54l-2 4-0.29-1.24c-0.33-1.39-7.71 10.1-7.71 13.24l-2.75 3.9c-1.51 2.14-2.41 4.17-1.25 5.1-9.23 16.55-9.74 17.09-13.5 17.77-2.2 0.4-62.61 0.62-134.25 0.48l-130.25-0.25h-62c-17.44 1.01-20.34 0.28-19.65-3.63 0.35-2 7.66-16.96 16.24-33.25s28.55-54.37 44.37-84.62c118.23-225.99 110.94-212.88 118.79-214.02zm163 330 3-5 4-8 3-5 5-9 7-13 4-7 5-10 2-3 3-5 1-2 4-7 3-6c3.78-7.36 7.38-13.89 10.44-19.25l5.56-9.75 3-5 3-6 4-7 7-13 3-6-2-5-4-7-1-2-3-5-1-2-3-5-16-29-3-5-1-2-3-5-7-13-12-21-1-2-3-5-1-2-4-7-1-2-3-5-1-2-4-7-7-13-4-7-1-2-3-5-4-8-4-7c-1.34-1.55-2.92-2-4.37-2h-2.63-48c-102.24 0-96.95-0.94-102.66 9.75l-3.34 6.25-4 7-3 6-7 13-5 10-3 5-3 6-5 9-13 26-2 3-9 17-9 18-2 3-5 10-5 9-8 15-7 14-4 7-5 10-1 1-5 10-6 11-7 14-3 5-4.25 7.25c-2.34 3.99-4.59 8.49-5.75 12.75l-3 5-6 12-3 5-4.11 6.75c-2.27 3.71-4.07 7.31-3.89 9.25l-1 1-5 10-1.63 1.33c-2.5 2.04-4.14 8.58-2.41 9.64 1.83 1.14 337.32 0.06 339.04-1.97z" fill="rgba(68,68,68,0.976471)"></path>
 <path d="m201 340 4-8 8-15 4-7 3-6 3-5 9-18 10-19 3-6 22-41 3-5 51-96 4-7c4.4-5.1 29.97-5.18 31.48-2.12 0.81 1.64-3.6 10.58-25.3 51.3-14.45 27.13-26.48 49.88-26.73 50.57l-0.45 1.25-3 5-27 51-3 5-6 12c-25.27 46.63-27.09 44.43 7.75 43.6l25.25-0.6 27.25 0.73c14.99 0.41 27.36 1.08 27.75 2.27l-13 25-143 2c-3.26-0.47-2.99-1.43 0.25-7.25zm5 10 78-1h21 29c1.99-0.57 11-17.01 11-18.72 0-0.88-1.7-1.28-5.5-1.28h-5.5l-21 1h-4l-47-1c-23.17 0.39-24.29 0.24-25.3-1.55-1.46-2.57 11.35-27.74 65.31-128.39 22.29-41.56 41.86-78.14 43.5-81.3 3.2-6.15 2.92-8.05-1.26-8.51l-2.25-0.25-12 1c-17.55 30.88-103.87 192.03-117.09 217.79-9.32 18.16-10.23 20.39-8.66 21.25z" fill="rgba(68,68,68,0.976471)"></path>
 <path d="m46 414c-2.95 7.13-3.03 8.09-2.01 8.71 0.71 0.44 76.82 0.68 169.15 0.54l167.86-0.25c-1.72 2.03-337.21 3.11-339.04 1.97-1.73-1.06-0.09-7.6 2.41-9.64z" fill="rgba(102,102,102,1)"></path>
 <path d="m144 387c112.76-0.71 161.59-1.16 181.25-1.46l35.75-0.54c-0.54 2.24-22.9 2.45-108.8 2.25z" fill="rgba(102,102,102,1)"></path>
 <path d="m94 400c-7.17 18.67-14.56 17.31 62.75 18.75l67.25 1.25c-148.81 1.62-142.42 2.78-134.7-11.38z" fill="rgba(102,102,102,1)"></path>
 <path d="m162 391h199z" fill="rgba(102,102,102,1)"></path>
 <path d="m190 358c114.31-1.23 148.74-1.91 150.25-2.29l2.75-0.71c-3.39 3.39-8.2 3.48-78.25 3.25z" fill="rgba(102,102,102,1)"></path>
 <path d="m92 415h188z" fill="rgba(102,102,102,1)"></path>
 <path d="m197 354 143-2c-0.53 2.24-15.49 2.45-71.8 2.25z" fill="rgba(102,102,102,1)"></path>
 <path d="m413 377c0-2.98 40.5-76.21 41.25-75.6l0.75 0.6c-11.99 23.55-34.57 63.66-39.21 70.75z" fill="rgba(40,40,40,0.956863)"></path>
 <path d="m249 319 110 2c-85.64-0.39-110.39-0.84-110.25-1.25z" fill="rgba(102,102,102,1)"></path>
 <path d="m221 396h103z" fill="rgba(102,102,102,1)"></path>
 <path d="m206 350 78-1z" fill="rgba(102,102,102,1)"></path>
 <path d="m64 388 22-43z" fill="rgba(102,102,102,1)"></path>
 <path d="m55 429h62z" fill="rgba(102,102,102,1)"></path>
 <path d="m281 362h60z" fill="rgba(102,102,102,1)"></path>
 <path d="m353 327c-0.39-1.19-12.76-1.86-27.75-2.27l-27.25-0.73c49.31 0.44 55.44 0.78 55.25 1.75z" fill="rgba(102,102,102,1)"></path>
 <path d="m253 110 53-1z" fill="rgba(102,102,102,1)"></path>
 <path d="m309 100h48z" fill="rgba(102,102,102,1)"></path>
 <path d="m262 329 47 1z" fill="rgba(102,102,102,1)"></path>
 <path d="m218 93h45z" fill="rgba(102,102,102,1)"></path>
 <path d="m445 232 3 7 4 7v1c-0.1 1.94-2.63-1.91-5.68-7.3-5.67-10-6.15-11.41-3.07-9.05z" fill="rgba(40,40,40,0.956863)"></path>
 <path d="m407 166c1.47 2.71 3.95 7.44 6.45 12.25l4.55 8.75c-8.91-13.94-11.39-18.66-11.25-19.49z" fill="rgba(40,40,40,0.956863)"></path>
 <path d="m187 362 33 1z" fill="rgba(102,102,102,1)"></path>
 <path d="m276 93 32 1z" fill="rgba(102,102,102,1)"></path>
 <path d="m48 417c0 2.45 2.06 2.79 9 2.88l9 0.12c-18.78 0.48-21.9-0.59-18.42-2.74z" fill="rgba(102,102,102,1)"></path>
 <path d="m72 365c1.16-4.26 3.41-8.76 5.75-12.75l4.25-7.25z" fill="rgba(102,102,102,1)"></path>
 <path d="m405 176 12 21z" fill="rgba(102,102,102,1)"></path>
 <path d="m305 349h29z" fill="rgba(102,102,102,1)"></path>
 <path d="m58 416 19-1c-1.62 1.16-5.9 1.39-10.55 1.25z" fill="rgba(102,102,102,1)"></path>
 <path d="m399 402c0-3.14 7.38-14.63 7.71-13.24l0.29 1.24z" fill="rgba(40,40,40,0.956863)"></path>
 <path d="m52 403c-0.18-1.94 1.62-5.54 3.89-9.25l4.11-6.75z" fill="rgba(102,102,102,1)"></path>
 <path d="m103 375c0.64-5.81 1.13-7.2 1.5-6.83 0.36 0.36 1.75-0.88 3.08-2.75l2.42-3.42z" fill="rgba(102,102,102,1)"></path>
 <path d="m161 345 9-17z" fill="rgba(102,102,102,1)"></path>
 <path d="m125 334c0.39-2.71 2.41-6.54 4.75-10.25l4.25-6.75z" fill="rgba(102,102,102,1)"></path>
 <path d="m171 326 9-17z" fill="rgba(102,102,102,1)"></path>
 <path d="m149 227 9-17z" fill="rgba(102,102,102,1)"></path>
 <path d="m149 218 9-17z" fill="rgba(102,102,102,1)"></path>
 <path d="m151 364 8-15z" fill="rgba(102,102,102,1)"></path>
 <path d="m161 274 8-15z" fill="rgba(102,102,102,1)"></path>
 <path d="m120 273 8-15z" fill="rgba(102,102,102,1)"></path>
 <path d="m175 239 8-15z" fill="rgba(102,102,102,1)"></path>
 <path d="m313 330 21-1z" fill="rgba(102,102,102,1)"></path>
 <path d="m436 217c1.94 2.96 2.5 4.2 2.51 4.66 0 0.46 0.34 1.4 0.75 2.09l0.74 1.25c-5.69-5.09-8.52-11.19-5.75-9.24z" fill="rgba(40,40,40,0.956863)"></path>
 <path d="m85 340 7-14z" fill="rgba(102,102,102,1)"></path>
 <path d="m191 280 7-14z" fill="rgba(102,102,102,1)"></path>
 <path d="m97 395 7-13z" fill="rgba(102,102,102,1)"></path>
 <path d="m193 346 7-13z" fill="rgba(102,102,102,1)"></path>
 <path d="m203 327 7-13z" fill="rgba(102,102,102,1)"></path>
 <path d="m141 312 7-13z" fill="rgba(102,102,102,1)"></path>
 <path d="m152 282 7-13z" fill="rgba(102,102,102,1)"></path>
 <path d="m122 278 7-13z" fill="rgba(102,102,102,1)"></path>
 <path d="m193 205 7-13z" fill="rgba(102,102,102,1)"></path>
 <path d="m189 142 7-13z" fill="rgba(102,102,102,1)"></path>
 <path d="m63 382 6-12z" fill="rgba(102,102,102,1)"></path>
 <path d="m105 380 6-12z" fill="rgba(102,102,102,1)"></path>
 <path d="m114 363 6-12z" fill="rgba(102,102,102,1)"></path>
 <path d="m88 342 6-12z" fill="rgba(102,102,102,1)"></path>
 <path d="m166 327 6-12z" fill="rgba(102,102,102,1)"></path>
 <path d="m135 315 6-12z" fill="rgba(102,102,102,1)"></path>
 <path d="m113 295 6-12z" fill="rgba(102,102,102,1)"></path>
 <path d="m132 329 6-11z" fill="rgba(102,102,102,1)"></path>
 <path d="m182 305 6-11z" fill="rgba(102,102,102,1)"></path>
 <path d="m153 289 6-11z" fill="rgba(102,102,102,1)"></path>
 <path d="m132 259 6-11z" fill="rgba(102,102,102,1)"></path>
 <path d="m166 256 6-11z" fill="rgba(102,102,102,1)"></path>
 <path d="m141 242 6-11z" fill="rgba(102,102,102,1)"></path>
 <path d="m185 220 6-11z" fill="rgba(102,102,102,1)"></path>
 <path d="m238 142h16z" fill="rgba(102,102,102,1)"></path>
 <path d="m50 414 5-10c0.14 1.94-0.98 4.19-2.41 6.25z" fill="rgba(102,102,102,1)"></path>
 <path d="m151 383 15-1z" fill="rgba(102,102,102,1)"></path>
 <path d="m413 377-4 9c-0.39-1.61 0.51-3.64 1.75-5.54z" fill="rgba(40,40,40,0.956863)"></path>
 <path d="m234 137 15-1z" fill="rgba(102,102,102,1)"></path>
 <path d="m46 414 5-10z" fill="rgba(102,102,102,1)"></path>
 <path d="m399 402-4 9c-1.16-0.93-0.26-2.96 1.25-5.1z" fill="rgba(40,40,40,0.956863)"></path>
 <path d="m94 393 5-10z" fill="rgba(102,102,102,1)"></path>
 <path d="m146 365 5-10z" fill="rgba(102,102,102,1)"></path>
 <path d="m275 316h14z" fill="rgba(102,102,102,1)"></path>
 <path d="m98 315 5-10z" fill="rgba(102,102,102,1)"></path>
 <path d="m214 307 5-10z" fill="rgba(102,102,102,1)"></path>
 <path d="m104 304 5-10z" fill="rgba(102,102,102,1)"></path>
 <path d="m113 287 5-10z" fill="rgba(102,102,102,1)"></path>
 <path d="m133 249 5-10z" fill="rgba(102,102,102,1)"></path>
 <path d="m140 236 5-10z" fill="rgba(102,102,102,1)"></path>
 <path d="m160 198 5-10z" fill="rgba(102,102,102,1)"></path>
 <path d="m330 110 12-1z" fill="rgba(102,102,102,1)"></path>
 <path d="m391 405 5-9z" fill="rgba(102,102,102,1)"></path>
 <path d="m134 396h13z" fill="rgba(102,102,102,1)"></path>
 <path d="m134 391h13z" fill="rgba(102,102,102,1)"></path>
 <path d="m123 346 5-9z" fill="rgba(102,102,102,1)"></path>
 <path d="m96 326 5-9c-0.39 2.71-1.51 4.74-2.75 6.25z" fill="rgba(102,102,102,1)"></path>
 <path d="m106 308 5-9z" fill="rgba(102,102,102,1)"></path>
 <path d="m412 291 5-9z" fill="rgba(102,102,102,1)"></path>
 <path d="m451 287 5-9z" fill="rgba(102,102,102,1)"></path>
 <path d="m419 287 5-9z" fill="rgba(102,102,102,1)"></path>
 <path d="m171 255 5-9z" fill="rgba(102,102,102,1)"></path>
 <path d="m173 172 5-9z" fill="rgba(102,102,102,1)"></path>
 <path d="m408 374 4-8z" fill="rgba(102,102,102,1)"></path>
 <path d="m467 281-4 6c-1-0.62-0.23-2.51 1.07-4.61s2.49-3.27 2.64-2.6z" fill="rgba(40,40,40,0.956863)"></path>
 <path d="m448 239c1.94 1.16 2.84 2.74 3.25 4.25l0.75 2.75z" fill="rgba(68,68,68,0.976471)"></path>
 <path d="m87 406 4-8z" fill="rgba(102,102,102,1)"></path>
 <path d="m157 344 4-8z" fill="rgba(102,102,102,1)"></path>
 <path d="m201 340 4-8z" fill="rgba(102,102,102,1)"></path>
 <path d="m176 308 4-8z" fill="rgba(102,102,102,1)"></path>
 <path d="m144 298 4-8z" fill="rgba(102,102,102,1)"></path>
 <path d="m184 293 4-8z" fill="rgba(102,102,102,1)"></path>
 <path d="m162 264 4-8z" fill="rgba(102,102,102,1)"></path>
 <path d="m403 383 4-7z" fill="rgba(102,102,102,1)"></path>
 <path d="m402 376 4-7z" fill="rgba(102,102,102,1)"></path>
 <path d="m374 369 4-7z" fill="rgba(102,102,102,1)"></path>
 <path d="m418 356 4-7z" fill="rgba(102,102,102,1)"></path>
 <path d="m382 354 4-7z" fill="rgba(102,102,102,1)"></path>
 <path d="m153 351 4-7z" fill="rgba(102,102,102,1)"></path>
 <path d="m419 345 4-7z" fill="rgba(102,102,102,1)"></path>
 <path d="m355 332 4-7z" fill="rgba(102,102,102,1)"></path>
 <path d="m213 317 4-7z" fill="rgba(102,102,102,1)"></path>
 <path d="m407 309 4-7z" fill="rgba(102,102,102,1)"></path>
 <path d="m447 303 4-7z" fill="rgba(102,102,102,1)"></path>
 <path d="m191 288 4-7z" fill="rgba(102,102,102,1)"></path>
 <path d="m455 265 4 7z" fill="rgba(102,102,102,1)"></path>
 <path d="m421 213 4 7z" fill="rgba(102,102,102,1)"></path>
 <path d="m411 195 4 7z" fill="rgba(102,102,102,1)"></path>
 <path d="m164 198 4-7z" fill="rgba(102,102,102,1)"></path>
 <path d="m365 170 4 7z" fill="rgba(102,102,102,1)"></path>
 <path d="m396 160 4 7z" fill="rgba(102,102,102,1)"></path>
 <path d="m385 149 4 7z" fill="rgba(102,102,102,1)"></path>
 <path d="m387 144 4 7z" fill="rgba(102,102,102,1)"></path>
 <path d="m380 140 4 7z" fill="rgba(102,102,102,1)"></path>
 <path d="m267 138-8-2c7.68 0 9.17 0.37 8.72 1z" fill="rgba(102,102,102,1)"></path>
 <path d="m376 124 4 7z" fill="rgba(102,102,102,1)"></path>
 <path d="m199 123 4-7z" fill="rgba(102,102,102,1)"></path>
 <path d="m307 109c5.54-1.28 6.57-1.13 6.75-0.25l0.25 1.25z" fill="rgba(102,102,102,1)"></path>
 <path d="m321 114 4-7z" fill="rgba(102,102,102,1)"></path>
 <path d="m364 102 4 7z" fill="rgba(102,102,102,1)"></path>
 <path d="m330 94h10z" fill="rgba(102,102,102,1)"></path>
 <path d="m371 181 3 6z" fill="rgba(102,102,102,1)"></path>
 <path d="m385 416 3-6z" fill="rgba(102,102,102,1)"></path>
 <path d="m58 399 3-6z" fill="rgba(102,102,102,1)"></path>
 <path d="m136 384 3-6z" fill="rgba(102,102,102,1)"></path>
 <path d="m141 383 3-6z" fill="rgba(102,102,102,1)"></path>
 <path d="m422 349 3-6z" fill="rgba(102,102,102,1)"></path>
 <path d="m254 309 3-6z" fill="rgba(102,102,102,1)"></path>
 <path d="m229 287 3-6z" fill="rgba(102,102,102,1)"></path>
 <path d="m458 283 3-6z" fill="rgba(102,102,102,1)"></path>
 <path d="m265 281 3-6z" fill="rgba(102,102,102,1)"></path>
 <path d="m242 262 3-6z" fill="rgba(102,102,102,1)"></path>
 <path d="m218 229 3-6z" fill="rgba(102,102,102,1)"></path>
 <path d="m381 423 3-5z" fill="rgba(102,102,102,1)"></path>
 <path d="m384 409 3-5z" fill="rgba(102,102,102,1)"></path>
 <path d="m406 369 3-5z" fill="rgba(102,102,102,1)"></path>
 <path d="m414 363 3-5z" fill="rgba(102,102,102,1)"></path>
 <path d="m412 358 3-5z" fill="rgba(102,102,102,1)"></path>
 <path d="m441 314 3-5z" fill="rgba(102,102,102,1)"></path>
 <path d="m404 314 3-5z" fill="rgba(102,102,102,1)"></path>
 <path d="m439 309 3-5z" fill="rgba(102,102,102,1)"></path>
 <path d="m220 304 3-5z" fill="rgba(102,102,102,1)"></path>
 <path d="m223 289 3-5z" fill="rgba(102,102,102,1)"></path>
 <path d="m198 275 3-5z" fill="rgba(102,102,102,1)"></path>
 <path d="m420 269 3 5z" fill="rgba(102,102,102,1)"></path>
 <path d="m271 269 3-5z" fill="rgba(102,102,102,1)"></path>
 <path d="m411 261 3 5z" fill="rgba(102,102,102,1)"></path>
 <path d="m451 258 3 5z" fill="rgba(102,102,102,1)"></path>
 <path d="m445 256 3 5z" fill="rgba(102,102,102,1)"></path>
 <path d="m201 260 3-5z" fill="rgba(102,102,102,1)"></path>
 <path d="m447 251 3 5z" fill="rgba(102,102,102,1)"></path>
 <path d="m439 245 3 5z" fill="rgba(102,102,102,1)"></path>
 <path d="m180 238 3-5z" fill="rgba(102,102,102,1)"></path>
 <path d="m218 237 3-5z" fill="rgba(102,102,102,1)"></path>
 <path d="m397 228 3 5z" fill="rgba(102,102,102,1)"></path>
 <path d="m390 224 3 5z" fill="rgba(102,102,102,1)"></path>
 <path d="m188 223 3-5z" fill="rgba(102,102,102,1)"></path>
 <path d="m428 217 3 5z" fill="rgba(102,102,102,1)"></path>
 <path d="m222 221 3-5z" fill="rgba(102,102,102,1)"></path>
 <path d="m424 210 3 5z" fill="rgba(102,102,102,1)"></path>
 <path d="m267 215 3-5z" fill="rgba(102,102,102,1)"></path>
 <path d="m301 213 3-5z" fill="rgba(102,102,102,1)"></path>
 <path d="m417 206 3 5z" fill="rgba(102,102,102,1)"></path>
 <path d="m378 194 3 5z" fill="rgba(102,102,102,1)"></path>
 <path d="m368 184 3 5z" fill="rgba(102,102,102,1)"></path>
 <path d="m244 180 3-5z" fill="rgba(102,102,102,1)"></path>
 <path d="m401 169 3 5z" fill="rgba(102,102,102,1)"></path>
 <path d="m390 158 3 5z" fill="rgba(102,102,102,1)"></path>
 <path d="m392 153 3 5z" fill="rgba(102,102,102,1)"></path>
 <path d="m355 152 3 5z" fill="rgba(102,102,102,1)"></path>
 <path d="m181 157 3-5z" fill="rgba(102,102,102,1)"></path>
 <path d="m228 139 3-5z" fill="rgba(102,102,102,1)"></path>
 <path d="m372 117 3 5z" fill="rgba(102,102,102,1)"></path>
 <path d="m363 109 3 5z" fill="rgba(102,102,102,1)"></path>
 <path d="m147 381 3 2c-4.14 1.38-4.38 1.22-3.75-0.25z" fill="rgba(102,102,102,1)"></path>
</svg>