<?xml version="1.0" encoding="UTF-8"?>
<svg width="16" height="16" viewBox="0 0 16 16" xmlns="http://www.w3.org/2000/svg">
    <path d="M13.451 5.609l-.579-.939-1.068.812-.076.094c-.335.415-.927 1.341-1.124 2.876l-.021.165.033.163.071.345c0 1.654-1.346 3-3 3-.795 0-1.545-.311-2.107-.868-.563-.567-.873-1.317-.873-2.111 0-1.431 1.007-2.632 2.351-2.929v2.926s2.528-2.087 2.984-2.461h.012l3.061-2.582-4.919-4.1h-1.137v2.404c-3.429.318-6.121 3.211-6.121 6.721 0 1.809.707 3.508 1.986 4.782 1.277 1.282 2.976 1.988 4.784 1.988 3.722 0 6.75-3.028 6.75-6.75 0-1.245-.349-2.468-1.007-3.536z" fill="#424242"/>
</svg>